<svg width="46" height="47" viewBox="0 0 46 47" fill="none" xmlns="http://www.w3.org/2000/svg">
<path d="M0.184204 25.1575C0.260027 8.7193 14.1722 -2.09934 28.4749 1.55204C31.0643 2.21317 31.4421 3.48349 29.5276 5.42127C24.6674 10.3404 19.773 15.2254 14.8749 20.1066C13.7957 21.1832 13.1259 22.3294 13.8108 23.8732C14.7801 26.0593 17.2292 26.6001 19.0123 24.9473C20.7006 23.3806 22.279 21.6948 23.9294 20.0863C27.028 17.0695 30.7572 16.9948 33.6145 19.871C36.4869 22.7638 36.3744 26.438 33.2859 29.5473C29.496 33.3633 25.6796 37.154 21.896 40.9764C21.4841 41.3918 20.6134 41.7236 20.9912 42.4607C21.2516 42.9699 22.0351 42.842 22.5987 42.8306C30.6005 42.671 36.7295 39.1728 40.2047 31.9448C43.6673 24.7433 42.7612 17.7471 37.8075 11.3828C37.3765 10.8281 36.8673 10.3341 36.4022 9.80597C35.6743 8.98147 35.4595 8.07844 36.31 7.25393C37.1642 6.42562 38.0792 6.67513 38.8627 7.43124C41.6896 10.1593 43.637 13.4346 44.7313 17.2012C49.5398 33.7635 34.8845 49.4595 18.0657 45.7727C17.7536 45.7043 17.4453 45.6169 17.1394 45.5257C14.7396 44.8152 14.3909 43.631 16.1095 41.8629C17.8496 40.0721 19.6391 38.3293 21.4057 36.5651C24.5322 33.4431 27.6674 30.3312 30.7799 27.1953C32.5972 25.3639 32.7235 23.8859 31.2627 22.3636C29.7399 20.7766 28.1337 20.8577 26.2735 22.6675C24.6674 24.2291 23.1244 25.8592 21.5018 27.403C18.599 30.1653 14.8888 30.0944 12.1149 27.2713C9.43837 24.5483 9.3954 20.8007 12.1288 18.0092C16.0261 14.0298 20.0017 10.1264 23.9319 6.17865C24.3198 5.78856 25.0553 5.45547 24.8569 4.84247C24.608 4.07242 23.7613 4.33206 23.1737 4.34599C15.0947 4.52204 9.04788 8.13416 5.48548 15.4205C2.04944 22.4497 3.37002 30.7087 8.50701 36.4004C9.42194 37.4136 11.0066 38.5029 9.50282 39.9049C7.94719 41.3538 6.8465 39.7352 5.9025 38.6586C2.11516 34.3449 0.201896 29.3028 0.184204 25.1575Z" fill="white"/>
</svg>
