<svg width="33" height="40" viewBox="0 0 33 40" fill="none" xmlns="http://www.w3.org/2000/svg">
<path d="M4.70833 0.25C3.49276 0.25 2.32697 0.732885 1.46743 1.59243C0.607885 2.45197 0.125 3.61776 0.125 4.83333V32.3333C0.125 33.5489 0.607885 34.7147 1.46743 35.5742C2.32697 36.4338 3.49276 36.9167 4.70833 36.9167H9.29167V34.625H4.70833C4.10055 34.625 3.51765 34.3836 3.08788 33.9538C2.65811 33.524 2.41667 32.9411 2.41667 32.3333V4.83333C2.41667 4.22555 2.65811 3.64265 3.08788 3.21288C3.51765 2.78311 4.10055 2.54167 4.70833 2.54167H18.4583C19.0661 2.54167 19.649 2.78311 20.0788 3.21288C20.5086 3.64265 20.75 4.22555 20.75 4.83333V17.5246C21.4683 17.1139 22.2393 16.8032 23.0417 16.601V4.83333C23.0417 3.61776 22.5588 2.45197 21.6992 1.59243C20.8397 0.732885 19.6739 0.25 18.4583 0.25H4.70833ZM12.461 30.0417L14.5396 27.9631C14.3458 27.8243 14.1134 27.7497 13.875 27.75H9.29167C8.98777 27.75 8.69632 27.8707 8.48144 28.0856C8.26655 28.3005 8.14583 28.5919 8.14583 28.8958C8.14583 29.1997 8.26655 29.4912 8.48144 29.7061C8.69632 29.921 8.98777 30.0417 9.29167 30.0417H12.461ZM12.7292 39.2083C12.5787 39.21 12.4294 39.1808 12.2907 39.1224C12.1519 39.0641 12.0266 38.9779 11.9225 38.8692C11.8138 38.7651 11.7276 38.6398 11.6693 38.501C11.6109 38.3623 11.5817 38.213 11.5833 38.0625V34.625C11.5817 34.4745 11.6109 34.3252 11.6693 34.1865C11.7276 34.0477 11.8138 33.9224 11.9225 33.8183L18.6554 27.0877C18.5282 26.5049 18.4621 25.9105 18.4583 25.314C18.4583 24.3835 18.6417 23.5127 19.0129 22.7015C19.3842 21.8902 19.8838 21.1729 20.5163 20.5519C21.151 19.9331 21.8775 19.4542 22.7025 19.1196C23.5395 18.7822 24.4311 18.6004 25.3333 18.5833C26.289 18.5833 27.1827 18.7621 28.0192 19.1196C28.8533 19.4794 29.5821 19.9675 30.2031 20.5885C31.4847 21.8724 32.2076 23.6104 32.2145 25.4244C32.2213 27.2385 31.5117 28.9819 30.2398 30.2754C29.6274 30.9238 28.8893 31.4407 28.0705 31.7945C27.2518 32.1483 26.3696 32.3316 25.4777 32.3333C25.0583 32.3333 24.6481 32.3035 24.2402 32.2417C23.8315 32.1817 23.4299 32.0804 23.0417 31.9392V32.386C23.0417 32.5533 23.0485 32.7275 23.06 32.9063C23.06 33.1217 23.0485 33.3302 23.0233 33.5319C23.0045 33.7199 22.9501 33.9027 22.8629 34.0704C22.7769 34.2285 22.6543 34.3636 22.5054 34.4646C22.3235 34.5794 22.1107 34.6354 21.8958 34.625H20.75C20.75 35.1865 20.7385 35.615 20.7133 35.9152C20.7087 36.1663 20.6135 36.4072 20.4452 36.5935C20.2523 36.7648 20.0042 36.8608 19.7463 36.864C19.4369 36.8869 19.0083 36.9052 18.4583 36.9167V37.5263C18.4583 37.7279 18.4469 37.925 18.4217 38.1152C18.3999 38.3005 18.3521 38.4818 18.2796 38.6538C18.2103 38.8179 18.0907 38.9559 17.9381 39.0479C17.7463 39.153 17.5312 39.2082 17.3125 39.2083H12.7292V39.2083ZM28.7708 23.7396C28.7748 23.5132 28.7322 23.2885 28.6459 23.0792C28.5596 22.8699 28.4313 22.6805 28.269 22.5227C28.1112 22.3604 27.9218 22.2321 27.7125 22.1457C27.5032 22.0594 27.2784 22.0169 27.0521 22.0208C26.8257 22.0169 26.601 22.0594 26.3917 22.1457C26.1824 22.2321 25.993 22.3604 25.8352 22.5227C25.6729 22.6805 25.5446 22.8699 25.4582 23.0792C25.3719 23.2885 25.3294 23.5132 25.3333 23.7396C25.3333 24.2163 25.5006 24.6219 25.8352 24.9565C25.993 25.1188 26.1824 25.2471 26.3917 25.3334C26.601 25.4197 26.8257 25.4623 27.0521 25.4583C27.2784 25.4623 27.5032 25.4197 27.7125 25.3334C27.9218 25.2471 28.1112 25.1188 28.269 24.9565C28.4313 24.7987 28.5596 24.6093 28.6459 24.4C28.7322 24.1907 28.7748 23.9659 28.7708 23.7396V23.7396Z" fill="white"/>
</svg>
