<svg width="119" height="167" viewBox="0 0 119 167" fill="none" xmlns="http://www.w3.org/2000/svg">
<g opacity="0.6">
<path d="M-45.9448 90.6126C-45.6729 31.6445 4.22899 -7.16484 55.5315 5.93364C64.8192 8.30527 66.1745 12.8623 59.3073 19.8136C41.8741 37.46 24.3185 54.9837 6.74924 72.4938C2.87821 76.3556 0.475815 80.4673 2.9326 86.0057C6.40928 93.8475 15.1939 95.7875 21.5897 89.8584C27.6455 84.2383 33.307 78.1911 39.2269 72.4211C50.3414 61.5988 63.7178 61.3307 73.9665 71.6487C84.2696 82.0257 83.8661 95.206 72.7879 106.36C59.194 120.049 45.5049 133.647 31.9336 147.359C30.4559 148.849 27.3328 150.04 28.6881 152.684C29.6219 154.51 32.4322 154.051 34.4538 154.011C63.1557 153.438 85.1399 140.889 97.6051 114.96C110.025 89.127 106.775 64.0295 89.0064 41.1991C87.4607 39.2092 85.634 37.4372 83.9659 35.5427C81.355 32.5849 80.5844 29.3455 83.635 26.3878C86.6992 23.4165 89.9809 24.3115 92.7913 27.0239C102.931 36.8103 109.916 48.5594 113.842 62.0713C131.089 121.485 78.5219 177.79 18.1946 164.565C17.075 164.319 15.969 164.006 14.8721 163.679C6.26423 161.13 5.01317 156.882 11.1778 150.539C17.4195 144.115 23.838 137.863 30.1749 131.535C41.3891 120.335 52.635 109.172 63.7993 97.9229C70.3175 91.3532 70.7708 86.0511 65.5309 80.59C60.0688 74.8972 54.3076 75.188 47.6353 81.6804C41.8741 87.2824 36.3395 93.1297 30.5194 98.668C20.1075 108.577 6.7991 108.323 -3.15044 98.1955C-12.751 88.4273 -12.9051 74.9835 -3.10058 64.97C10.8786 50.6947 25.1389 36.6921 39.236 22.5305C40.6276 21.1312 43.2657 19.9363 42.554 17.7373C41.661 14.9749 38.624 15.9063 36.5163 15.9563C7.53795 16.5878 -14.1516 29.5454 -26.9296 55.6833C-39.2544 80.8989 -34.5176 110.526 -16.0917 130.944C-12.8099 134.579 -7.12573 138.486 -12.5198 143.515C-18.0997 148.713 -22.0478 142.907 -25.4338 139.045C-39.0187 123.57 -45.8814 105.483 -45.9448 90.6126Z" fill="#E0E6ED"/>
</g>
</svg>
